<svg width="700" height="134" viewBox="0 0 700 134" fill="none" xmlns="http://www.w3.org/2000/svg">
<rect x="20" y="42" width="30" height="90" fill="white"/>
<rect y="2" width="170" height="30" fill="white"/>
<rect x="70" y="42" width="30" height="90" fill="white"/>
<rect x="120" y="42" width="30" height="90" fill="white"/>
<path d="M209.996 11.1797V22.6055H222.723C224.996 22.6055 226.836 22.1836 228.242 21.3398C229.672 20.4727 230.387 18.9492 230.387 16.7695C230.387 14.3555 229.449 12.7617 227.574 11.9883C225.957 11.4492 223.895 11.1797 221.387 11.1797H209.996ZM209.996 31.1836V45H222.723C224.996 45 226.766 44.6953 228.031 44.0859C230.328 42.9609 231.477 40.8047 231.477 37.6172C231.477 34.9219 230.363 33.0703 228.137 32.0625C226.895 31.5 225.148 31.207 222.898 31.1836H209.996ZM224.832 2.17969C231.184 2.27344 235.684 4.11328 238.332 7.69922C239.926 9.90234 240.723 12.5391 240.723 15.6094C240.723 18.7734 239.926 21.3164 238.332 23.2383C237.441 24.3164 236.129 25.3008 234.395 26.1914C237.043 27.1523 239.035 28.6758 240.371 30.7617C241.73 32.8477 242.41 35.3789 242.41 38.3555C242.41 41.4258 241.637 44.1797 240.09 46.6172C239.105 48.2344 237.875 49.5938 236.398 50.6953C234.734 51.9609 232.766 52.8281 230.492 53.2969C228.242 53.7656 225.793 54 223.145 54H199.66V2.17969H224.832Z" fill="white"/>
<path d="M258.024 11.1797V25.1016H270.293C272.731 25.1016 274.559 24.8203 275.778 24.2578C277.934 23.2734 279.012 21.3281 279.012 18.4219C279.012 15.2812 277.969 13.1719 275.883 12.0938C274.711 11.4844 272.953 11.1797 270.61 11.1797H258.024ZM272.86 2.17969C276.493 2.25 279.282 2.69531 281.227 3.51562C283.196 4.33594 284.86 5.54297 286.219 7.13672C287.344 8.44922 288.235 9.90234 288.891 11.4961C289.547 13.0898 289.875 14.9062 289.875 16.9453C289.875 19.4062 289.254 21.832 288.012 24.2227C286.77 26.5898 284.719 28.2656 281.86 29.25C284.25 30.2109 285.938 31.582 286.922 33.3633C287.93 35.1211 288.434 37.8164 288.434 41.4492V44.9297C288.434 47.2969 288.528 48.9023 288.715 49.7461C288.996 51.082 289.653 52.0664 290.684 52.6992V54H278.766C278.438 52.8516 278.203 51.9258 278.063 51.2227C277.782 49.7695 277.629 48.2812 277.606 46.7578L277.535 41.9414C277.489 38.6367 276.879 36.4336 275.707 35.332C274.559 34.2305 272.391 33.6797 269.203 33.6797H258.024V54H247.442V2.17969H272.86Z" fill="white"/>
<path d="M306.981 54H296.223V2.17969H306.981V54Z" fill="white"/>
<path d="M325.458 11.1797V45H335.442C340.551 45 344.114 42.4805 346.13 37.4414C347.231 34.6758 347.782 31.3828 347.782 27.5625C347.782 22.2891 346.95 18.2461 345.286 15.4336C343.645 12.5977 340.364 11.1797 335.442 11.1797H325.458ZM337.27 2.17969C340.481 2.22656 343.153 2.60156 345.286 3.30469C348.919 4.5 351.86 6.69141 354.11 9.87891C355.915 12.457 357.145 15.2461 357.801 18.2461C358.458 21.2461 358.786 24.1055 358.786 26.8242C358.786 33.7148 357.403 39.5508 354.637 44.332C350.887 50.7773 345.098 54 337.27 54H314.946V2.17969H337.27Z" fill="white"/>
<path d="M399.657 18.3516C398.837 14.8125 396.833 12.3398 393.645 10.9336C391.864 10.1602 389.884 9.77344 387.704 9.77344C383.532 9.77344 380.098 11.3555 377.403 14.5195C374.731 17.6602 373.395 22.3945 373.395 28.7227C373.395 35.0977 374.848 39.6094 377.755 42.2578C380.661 44.9062 383.966 46.2305 387.669 46.2305C391.302 46.2305 394.278 45.1875 396.598 43.1016C398.919 40.9922 400.348 38.2383 400.887 34.8398H388.899V26.1914H410.485V54H403.313L402.223 47.5312C400.137 49.9922 398.262 51.7266 396.598 52.7344C393.739 54.4922 390.223 55.3711 386.052 55.3711C379.184 55.3711 373.559 52.9922 369.177 48.2344C364.606 43.4531 362.321 36.9141 362.321 28.6172C362.321 20.2266 364.63 13.5 369.247 8.4375C373.864 3.375 379.97 0.84375 387.563 0.84375C394.149 0.84375 399.434 2.51953 403.419 5.87109C407.427 9.19922 409.723 13.3594 410.309 18.3516H399.657Z" fill="white"/>
<path d="M457.017 11.3555H429.595V22.3594H454.767V31.3594H429.595V44.6836H458.282V54H419.013V2.17969H457.017V11.3555Z" fill="white"/>
<path d="M472.4 38.0039C472.728 40.3711 473.372 42.1406 474.333 43.3125C476.091 45.4453 479.103 46.5117 483.368 46.5117C485.923 46.5117 487.997 46.2305 489.591 45.668C492.614 44.5898 494.126 42.5859 494.126 39.6562C494.126 37.9453 493.376 36.6211 491.876 35.6836C490.376 34.7695 488.021 33.9609 484.81 33.2578L479.325 32.0273C473.935 30.8086 470.208 29.4844 468.146 28.0547C464.653 25.6641 462.907 21.9258 462.907 16.8398C462.907 12.1992 464.595 8.34375 467.97 5.27344C471.345 2.20312 476.302 0.667969 482.841 0.667969C488.302 0.667969 492.954 2.12109 496.798 5.02734C500.665 7.91016 502.693 12.1055 502.88 17.6133H492.474C492.286 14.4961 490.927 12.2812 488.396 10.9688C486.708 10.1016 484.61 9.66797 482.103 9.66797C479.314 9.66797 477.087 10.2305 475.423 11.3555C473.759 12.4805 472.927 14.0508 472.927 16.0664C472.927 17.918 473.747 19.3008 475.388 20.2148C476.443 20.8242 478.693 21.5391 482.138 22.3594L491.068 24.5039C494.982 25.4414 497.935 26.6953 499.927 28.2656C503.021 30.7031 504.568 34.2305 504.568 38.8477C504.568 43.582 502.751 47.5195 499.118 50.6602C495.509 53.7773 490.4 55.3359 483.79 55.3359C477.04 55.3359 471.732 53.8008 467.864 50.7305C463.997 47.6367 462.064 43.3945 462.064 38.0039H472.4Z" fill="white"/>
<path d="M228.664 96.668C228.664 93.9727 227.949 92.0508 226.52 90.9023C225.113 89.7539 223.133 89.1797 220.578 89.1797H210.488V104.438H220.578C223.133 104.438 225.113 103.816 226.52 102.574C227.949 101.332 228.664 99.3633 228.664 96.668ZM239.387 96.5977C239.387 102.715 237.84 107.039 234.746 109.57C231.652 112.102 227.234 113.367 221.492 113.367H210.488V132H199.73V80.1797H222.301C227.504 80.1797 231.652 81.5156 234.746 84.1875C237.84 86.8594 239.387 90.9961 239.387 96.5977Z" fill="white"/>
<path d="M255.456 89.1797V103.102H267.725C270.163 103.102 271.991 102.82 273.21 102.258C275.366 101.273 276.444 99.3281 276.444 96.4219C276.444 93.2812 275.401 91.1719 273.315 90.0938C272.143 89.4844 270.386 89.1797 268.042 89.1797H255.456ZM270.292 80.1797C273.925 80.25 276.714 80.6953 278.659 81.5156C280.628 82.3359 282.292 83.543 283.651 85.1367C284.776 86.4492 285.667 87.9023 286.323 89.4961C286.979 91.0898 287.307 92.9062 287.307 94.9453C287.307 97.4062 286.686 99.832 285.444 102.223C284.202 104.59 282.151 106.266 279.292 107.25C281.682 108.211 283.37 109.582 284.354 111.363C285.362 113.121 285.866 115.816 285.866 119.449V122.93C285.866 125.297 285.96 126.902 286.147 127.746C286.429 129.082 287.085 130.066 288.116 130.699V132H276.198C275.87 130.852 275.636 129.926 275.495 129.223C275.214 127.77 275.061 126.281 275.038 124.758L274.968 119.941C274.921 116.637 274.311 114.434 273.14 113.332C271.991 112.23 269.823 111.68 266.636 111.68H255.456V132H244.874V80.1797H270.292Z" fill="white"/>
<path d="M316.701 124.266C320.99 124.266 324.388 122.684 326.896 119.52C329.427 116.355 330.693 111.855 330.693 106.02C330.693 100.207 329.427 95.7188 326.896 92.5547C324.388 89.3672 320.99 87.7734 316.701 87.7734C312.412 87.7734 308.99 89.3555 306.435 92.5195C303.881 95.6836 302.603 100.184 302.603 106.02C302.603 111.855 303.881 116.355 306.435 119.52C308.99 122.684 312.412 124.266 316.701 124.266ZM341.521 106.02C341.521 115.324 338.908 122.449 333.681 127.395C329.767 131.426 324.107 133.441 316.701 133.441C309.295 133.441 303.635 131.426 299.72 127.395C294.47 122.449 291.845 115.324 291.845 106.02C291.845 96.5273 294.47 89.4023 299.72 84.6445C303.635 80.6133 309.295 78.5977 316.701 78.5977C324.107 78.5977 329.767 80.6133 333.681 84.6445C338.908 89.4023 341.521 96.5273 341.521 106.02Z" fill="white"/>
<path d="M358.17 89.1797V123H368.154C373.264 123 376.826 120.48 378.842 115.441C379.943 112.676 380.494 109.383 380.494 105.562C380.494 100.289 379.662 96.2461 377.998 93.4336C376.357 90.5977 373.076 89.1797 368.154 89.1797H358.17ZM369.982 80.1797C373.193 80.2266 375.865 80.6016 377.998 81.3047C381.631 82.5 384.572 84.6914 386.822 87.8789C388.627 90.457 389.857 93.2461 390.514 96.2461C391.17 99.2461 391.498 102.105 391.498 104.824C391.498 111.715 390.115 117.551 387.35 122.332C383.6 128.777 377.81 132 369.982 132H347.658V80.1797H369.982Z" fill="white"/>
<path d="M396.809 80.1797H407.813V112.031C407.813 115.594 408.235 118.195 409.079 119.836C410.391 122.742 413.251 124.195 417.657 124.195C422.04 124.195 424.887 122.742 426.2 119.836C427.044 118.195 427.466 115.594 427.466 112.031V80.1797H438.47V112.031C438.47 117.539 437.614 121.828 435.903 124.898C432.716 130.523 426.634 133.336 417.657 133.336C408.68 133.336 402.587 130.523 399.376 124.898C397.665 121.828 396.809 117.539 396.809 112.031V80.1797Z" fill="white"/>
<path d="M443.711 106.512C443.711 97.4648 446.136 90.4922 450.988 85.5938C455.207 81.3281 460.574 79.1953 467.09 79.1953C475.808 79.1953 482.183 82.0547 486.215 87.7734C488.441 90.9844 489.636 94.207 489.8 97.4414H478.972C478.269 94.957 477.367 93.082 476.265 91.8164C474.297 89.5664 471.379 88.4414 467.511 88.4414C463.574 88.4414 460.468 90.0352 458.195 93.2227C455.922 96.3867 454.785 100.875 454.785 106.688C454.785 112.5 455.98 116.859 458.371 119.766C460.785 122.648 463.843 124.09 467.547 124.09C471.343 124.09 474.238 122.848 476.23 120.363C477.332 119.027 478.246 117.023 478.972 114.352H489.695C488.758 120 486.355 124.594 482.488 128.133C478.644 131.672 473.711 133.441 467.687 133.441C460.234 133.441 454.375 131.051 450.109 126.27C445.843 121.465 443.711 114.879 443.711 106.512Z" fill="white"/>
<path d="M533.484 80.1797V89.3555H517.98V132H507.082V89.3555H491.508V80.1797H533.484Z" fill="white"/>
<path d="M547.602 132H536.844V80.1797H547.602V132Z" fill="white"/>
<path d="M578.488 124.266C582.777 124.266 586.176 122.684 588.684 119.52C591.215 116.355 592.481 111.855 592.481 106.02C592.481 100.207 591.215 95.7188 588.684 92.5547C586.176 89.3672 582.777 87.7734 578.488 87.7734C574.199 87.7734 570.777 89.3555 568.223 92.5195C565.668 95.6836 564.391 100.184 564.391 106.02C564.391 111.855 565.668 116.355 568.223 119.52C570.777 122.684 574.199 124.266 578.488 124.266ZM603.309 106.02C603.309 115.324 600.695 122.449 595.469 127.395C591.555 131.426 585.895 133.441 578.488 133.441C571.082 133.441 565.422 131.426 561.508 127.395C556.258 122.449 553.633 115.324 553.633 106.02C553.633 96.5273 556.258 89.4023 561.508 84.6445C565.422 80.6133 571.082 78.5977 578.488 78.5977C585.895 78.5977 591.555 80.6133 595.469 84.6445C600.695 89.4023 603.309 96.5273 603.309 106.02Z" fill="white"/>
<path d="M609.27 80.1797H620.625L641.262 116.355V80.1797H651.352V132H640.524L619.36 95.1914V132H609.27V80.1797Z" fill="white"/>
<path d="M667.157 116.004C667.485 118.371 668.129 120.141 669.09 121.312C670.848 123.445 673.86 124.512 678.125 124.512C680.68 124.512 682.754 124.23 684.348 123.668C687.372 122.59 688.883 120.586 688.883 117.656C688.883 115.945 688.133 114.621 686.633 113.684C685.133 112.77 682.778 111.961 679.567 111.258L674.082 110.027C668.692 108.809 664.965 107.484 662.903 106.055C659.411 103.664 657.665 99.9258 657.665 94.8398C657.665 90.1992 659.352 86.3438 662.727 83.2734C666.102 80.2031 671.059 78.668 677.598 78.668C683.059 78.668 687.711 80.1211 691.555 83.0273C695.422 85.9102 697.45 90.1055 697.637 95.6133H687.231C687.043 92.4961 685.684 90.2812 683.153 88.9688C681.465 88.1016 679.368 87.668 676.86 87.668C674.071 87.668 671.844 88.2305 670.18 89.3555C668.516 90.4805 667.684 92.0508 667.684 94.0664C667.684 95.918 668.504 97.3008 670.145 98.2148C671.2 98.8242 673.45 99.5391 676.895 100.359L685.825 102.504C689.739 103.441 692.692 104.695 694.684 106.266C697.778 108.703 699.325 112.23 699.325 116.848C699.325 121.582 697.508 125.52 693.875 128.66C690.266 131.777 685.157 133.336 678.547 133.336C671.797 133.336 666.489 131.801 662.622 128.73C658.754 125.637 656.821 121.395 656.821 116.004H667.157Z" fill="white"/>
</svg>
